<mxfile host="app.diagrams.net" modified="2022-03-30T18:17:53.818Z" agent="5.0 (X11)" etag="v9HGSzezpAyGyzA_Le27" version="17.3.0" type="github">
  <diagram id="z7bytPD40jEPgfPELony" name="Page-1">
    <mxGraphModel dx="992" dy="611" grid="1" gridSize="10" guides="1" tooltips="1" connect="1" arrows="1" fold="1" page="1" pageScale="1" pageWidth="827" pageHeight="1169" math="0" shadow="0">
      <root>
        <mxCell id="0" />
        <mxCell id="1" parent="0" />
        <mxCell id="FYn5uU1B87FpTbG8uk8e-1" value="" style="rounded=0;whiteSpace=wrap;html=1;" vertex="1" parent="1">
          <mxGeometry x="40" y="90" width="190" height="140" as="geometry" />
        </mxCell>
        <mxCell id="FYn5uU1B87FpTbG8uk8e-2" value="" style="rounded=0;whiteSpace=wrap;html=1;" vertex="1" parent="1">
          <mxGeometry x="610" y="100" width="190" height="140" as="geometry" />
        </mxCell>
        <mxCell id="FYn5uU1B87FpTbG8uk8e-3" value="" style="rounded=0;whiteSpace=wrap;html=1;" vertex="1" parent="1">
          <mxGeometry x="330" y="100" width="190" height="140" as="geometry" />
        </mxCell>
        <mxCell id="FYn5uU1B87FpTbG8uk8e-4" value="" style="rounded=0;whiteSpace=wrap;html=1;" vertex="1" parent="1">
          <mxGeometry x="40" y="1000" width="190" height="140" as="geometry" />
        </mxCell>
        <mxCell id="FYn5uU1B87FpTbG8uk8e-5" value="" style="rounded=0;whiteSpace=wrap;html=1;" vertex="1" parent="1">
          <mxGeometry x="330" y="1000" width="190" height="140" as="geometry" />
        </mxCell>
        <mxCell id="FYn5uU1B87FpTbG8uk8e-6" value="" style="rounded=0;whiteSpace=wrap;html=1;" vertex="1" parent="1">
          <mxGeometry x="610" y="1000" width="190" height="140" as="geometry" />
        </mxCell>
        <mxCell id="FYn5uU1B87FpTbG8uk8e-7" value="" style="rounded=0;whiteSpace=wrap;html=1;" vertex="1" parent="1">
          <mxGeometry x="330" y="550" width="190" height="140" as="geometry" />
        </mxCell>
      </root>
    </mxGraphModel>
  </diagram>
</mxfile>
